<?xml version="1.0" encoding="utf-8"?>
<!-- Generator: Adobe Illustrator 19.2.1, SVG Export Plug-In . SVG Version: 6.00 Build 0)  -->
<svg version="1.1" id="layer" xmlns="http://www.w3.org/2000/svg" xmlns:xlink="http://www.w3.org/1999/xlink" x="0px" y="0px"
	 viewBox="0 0 652 652" style="enable-background:new 0 0 652 652;" xml:space="preserve">
<style type="text/css">
	.st0{fill:#FFFFFF;}
	.st1{fill:#0074BC;}
	.st2{fill:#80827A;}
</style>
<rect x="21.1" y="197.9" class="st0" width="222.8" height="222.8"/>
<rect x="21.1" y="197.4" class="st1" width="223.2" height="223.2"/>
<path class="st0" d="M178.6,213.9c5.5,0,10,4.5,10,10c0,5.5-4.5,10-10,10c-5.5,0-10-4.5-10-10C168.6,218.3,173.1,213.9,178.6,213.9
	 M86.9,213.9c5.5,0,10,4.5,10,10c0,5.5-4.5,10-10,10c-5.5,0-10-4.5-10-10C76.9,218.3,81.3,213.9,86.9,213.9 M233.8,233.8
	c-5.9,1.8-40.9,13.2-61.3,9.8c-11.9-3.6-26.5-14.9-37.3-24.1c5-5.7,8.4-10,9.9-11.9c0.5-0.6-0.1-1.4-0.8-0.8
	c-1.7,1.6-6,5.6-11.7,10.5c-5.6-4.9-9.8-8.9-11.5-10.5c-0.6-0.6-1.2,0.2-0.7,0.8c1.4,1.9,4.7,6.3,9.4,12.1
	c-10.7,9-25.2,19.8-36.9,23.4c-20.4,3.4-55.3-7.4-61.2-9.2c-0.9-0.2-1.1,0.7-0.5,1c5.4,2.7,29.5,14.5,56.4,22.4
	c1.9,8.7,2.5,20.8,0.4,37.2c-5.7,43.2-47.4,88.5-48.4,89.6c-0.5,0.5,0,1.3,0.5,0.9c3.4-2.4,34.8-23.7,54.6-59.1
	c3.4,33.7,1.2,79.7,1,81.4c-0.1,1.1,1,0.9,1.1,0.4c2-6.9,13.6-72.6,13.1-119.4c4.2,4.6,9.2,9.7,14.6,14.9c-1.3,3.5-2.4,8.9-2.9,15.5
	c-2.5,32.1,7.2,87.3,8.7,92.7c0.1,0.3,1,0.4,1-0.4c-0.1-1.2-1.9-32.9,0.5-56.2c11.3,20.3,27.6,33.4,34.2,38.3
	c1.3,7.7,2.4,13,2.9,14.7c0.1,0.5,1.2,0.7,1.1-0.4c-0.2-1.7-2.4-47.7,1-81.4c19.8,35.4,51.2,56.7,54.6,59.1c0.5,0.4,1-0.4,0.5-0.9
	c-1.1-1.1-42.8-46.4-48.4-89.6c-2.2-16.4-1.6-28.5,0.4-37.2c29.5-5.9,51.1-19.6,56.5-22.4C234.9,234.5,234.7,233.6,233.8,233.8
	 M109.8,283.1c-0.1-3.3-0.3-6.5-0.5-9.5c-0.7-9.6-2.3-17.3-4.2-22.4c10.7-10.2,20.1-20.4,27.3-28.4c7,8.4,16.4,19,27.2,29.3
	c-1.9,5.1-2.7,12-3.4,21.6c-0.5,6.8-0.7,14.4-0.5,22.3c-7.8,1.5-16.3,2.5-22.7,1.4C125.6,295.1,116.9,288.9,109.8,283.1
	 M136.3,332.8c-1.5-11.4-1.1-19.7,0.3-25.8c6.8-2,13.4-4.4,19.2-6.6c0.9,31.4,6,67.6,9.5,89C157.3,379.9,139.4,356.2,136.3,332.8
	 M144,284.1c0-3.8-3.1-6.9-6.9-6.9c-3.8,0-6.9,3.1-6.9,6.9c0,3.8,3.1,6.9,6.9,6.9C140.9,291,144,287.9,144,284.1"/>
<path class="st2" d="M325.9,298.3c-26.8,0-44.9-20.7-44.9-51.3c0-30.4,18.4-51.5,45.7-51.5c11.2,0,20.4,3.3,27.8,8.5l-1.6,10.1
	c-7.8-5.6-16.4-9.6-26.4-9.6c-21.8,0-35.3,17.2-35.3,42.4c0,25.4,13.6,42.5,35.2,42.5c10.6,0,20.2-4.2,28.3-10.3l1.4,9.5
	C348.6,294,337.7,298.3,325.9,298.3 M377.7,212.3c3.7,0,6.8-3.2,6.8-6.9c0-3.7-3-6.9-6.8-6.9c-3.7,0-6.9,3.2-6.9,6.9
	C370.8,209.1,373.9,212.3,377.7,212.3 M372.9,296.4h9.3v-67.9h-9.3V296.4z M427.6,297.6c4,0,7.5-0.6,9.5-1.1l-1.4-7.9
	c-1.6,0.3-4.2,0.7-6.3,0.7c-7.3,0-10-3-10-9.9v-42.8h16.9l-1.3-8h-15.7v-25.1l-9.3,1.6v23.5h-10.5v8h10.5v44.4
	C409.9,293.4,417,297.6,427.6,297.6 M504.9,228.5h-9.8l-20.1,57L454,227.7l-9.2,1.7l25.7,67.5l-3.2,8.2c-2.6,6.6-5.9,9-11.5,9
	c-2.1,0-4.2-0.3-5.6-0.6l1.3,8.3c1,0.1,2.3,0.4,3.7,0.4c10,0,16.1-4.2,21-17.4L504.9,228.5z M533.4,244.5
	c13.9,0,23.2,10.7,23.2,26.5c0,15.8-9.3,26.4-23.2,26.4c-13.7,0-22.9-10.6-22.9-26.4C510.5,255.1,519.7,244.5,533.4,244.5
	 M533.4,290c9.1,0,14.5-7.1,14.5-19c0-11.6-5.7-19.1-14.5-19.1c-8.8,0-14.3,7.3-14.3,19.1C519.1,282.5,524.7,290,533.4,290
	 M568.2,234.3v11.2h-7.5v7.4h7.5v43.4h8.3v-43.4h11.7l-1.2-7.4h-10.5v-10.7c0-4.6,2.1-6.7,6.7-6.7c0,0,0.6-0.1,5,0.4l-1.9-7.9
	c-2.1-0.2-3.5-0.3-3.5-0.3C573.4,220.3,568.2,225.3,568.2,234.3 M360.2,420.8v-99.1h-9.9v42.8h-55v-42.8h-9.9v99.1h9.9v-47.4h55
	v47.4H360.2z M410.7,422.2c17.4,0,30.9-12.9,30.9-35.3c0-22.5-13.2-35.5-30.9-35.5c-17.1,0-30.4,12.9-30.4,35.5
	C380.3,409.3,393.4,422.2,410.7,422.2 M410.7,359.5c13.6,0,21.1,11.8,21.1,27.4c0,16.1-7.3,27.3-21.1,27.3
	c-13.4,0-20.8-11.6-20.8-27.3C389.9,370.8,397.2,359.5,410.7,359.5 M486.7,421.7c16.5,0,31-11.9,31-36.8c0-22.7-12.5-33.4-27.3-33.4
	c-9.9,0-16.6,5.2-22,11.2l-1.6-9.8h-7.3v94.2l9.5-1.6v-27.1C473.9,420.4,479.9,421.7,486.7,421.7 M489.4,359.9
	c10.8,0,18.7,8.9,18.7,25.4c0,18.9-9.5,28.3-21.7,28.3c-7,0-12.1-1.4-17.4-4v-37.5C475.2,364.7,481.4,359.9,489.4,359.9
	 M588.3,385.5c0-18.8-8.9-34-27.4-34c-16.7,0-29.3,13.5-29.3,35.3c0,23.4,12.8,35.4,30.6,35.4c10.5,0,19.2-3.9,26-9.6l-1.4-8.6
	c-7,6-14.9,10.1-24,10.1c-13.6,0-21.4-9.9-21.7-26.6h47.2V385.5z M560.9,359.1c10.9,0,16.6,8.8,17.7,21h-37
	C543.4,367,550.3,359.1,560.9,359.1 M610.2,422.2c6.3,0,10.9-4.5,10.9-11.1c0-6.7-4.5-11.2-10.9-11.2c-6.3,0-10.9,4.6-10.9,11.2
	C599.3,417.7,603.8,422.2,610.2,422.2 M610.2,401.2c5.2,0,9.4,3.6,9.4,9.9c0,6.3-4.1,9.8-9.4,9.8c-5.2,0-9.3-3.6-9.3-9.8
	C600.9,404.7,605,401.2,610.2,401.2 M615.5,416.5l-3.5-5c1.5-0.5,2.5-1.6,2.5-3.4c0-2.3-1.7-3.6-4.3-3.6h-3.7v12.3h2.1v-5.1h1.2
	l3.7,5.3L615.5,416.5z M610.2,406.4c1.4,0,2.2,0.6,2.2,1.8c0,1.2-0.9,1.8-2.3,1.8h-1.5v-3.6H610.2"/>
</svg>
